/* XPM */
static char *_7e8ec3e2f134a77e75354c20a9aae848OE3uUgWEbiT1jTY[] = {
/* columns rows colors chars-per-pixel */
"64 64 231 2 ",
"   c #010403",
".  c #000A03",
"X  c #00060A",
"o  c #000A0B",
"O  c #001301",
"+  c #001B00",
"@  c #00120D",
"#  c #001B0D",
"$  c #000E11",
"%  c #001413",
"&  c #001419",
"*  c #001B16",
"=  c #002300",
"-  c #002B00",
";  c #001921",
":  c #3C7D3C",
">  c #377E37",
",  c #417D3E",
"<  c #345D5C",
"1  c #3C5D5C",
"2  c #3F5D57",
"3  c #2F5F5F",
"4  c #3B614B",
"5  c #3C7D43",
"6  c #3A7C48",
"7  c #27695C",
"8  c #35615D",
"9  c #3A615E",
"0  c #377C55",
"q  c #355F62",
"w  c #3C5D61",
"e  c #2B5C60",
"r  c #1B6C6B",
"t  c #196B68",
"y  c #167073",
"u  c #2D6464",
"i  c #246B6B",
"p  c #276768",
"a  c #336263",
"s  c #3A6262",
"d  c #346669",
"f  c #485D46",
"g  c #54534E",
"h  c #4C5554",
"j  c #4D5955",
"k  c #4C5659",
"l  c #435B5B",
"z  c #4A595A",
"x  c #445758",
"c  c #535454",
"v  c #535559",
"b  c #51595B",
"n  c #565755",
"m  c #447946",
"M  c #42615D",
"N  c #477553",
"B  c #456047",
"V  c #455D61",
"C  c #5D7E7A",
"Z  c #416160",
"A  c #647D7D",
"S  c #199818",
"D  c #0D9E13",
"F  c #23901C",
"G  c #05A504",
"H  c #0CA014",
"J  c #298928",
"K  c #32872C",
"L  c #229124",
"P  c #2A8934",
"I  c #338534",
"U  c #378338",
"Y  c #44813E",
"T  c #388445",
"R  c #2A8247",
"E  c #3D937A",
"W  c #478B7C",
"Q  c #57837C",
"!  c #439177",
"~  c #4E8B69",
"^  c #63827B",
"/  c #418144",
"(  c #5C7F82",
")  c #617F81",
"_  c #1C9C9B",
"`  c #199B99",
"'  c #338E8D",
"]  c #3C8D8C",
"[  c #3E8D87",
"{  c #34928E",
"}  c #3C918C",
"|  c #3F9383",
" . c #368F91",
".. c #3C8E92",
"X. c #2C9594",
"o. c #259995",
"O. c #2B9699",
"+. c #239B9B",
"@. c #299797",
"#. c #349393",
"$. c #3A9292",
"%. c #32959A",
"&. c #2B948D",
"*. c #15A09E",
"=. c #1C9EA1",
"-. c #0F9FA2",
";. c #219DA1",
":. c #08A5A4",
">. c #13A2A2",
",. c #19A1A1",
"<. c #23A09F",
"1. c #4B8685",
"2. c #4B8985",
"3. c #438C8B",
"4. c #4A8A8A",
"5. c #478887",
"6. c #548484",
"7. c #5B8382",
"8. c #538689",
"9. c #52898A",
"0. c #538986",
"q. c #43908D",
"w. c #448D91",
"e. c #638283",
"r. c #6EBEBE",
"t. c #7DB6B4",
"y. c #7DBAB5",
"u. c #74BDBC",
"i. c #7CBBBB",
"p. c #79BAB7",
"a. c #7CBAA7",
"s. c #6CC2BC",
"d. c #6DC0B6",
"f. c #73C1BD",
"g. c #7AC1B9",
"h. c #7AC29C",
"j. c #6CBEC1",
"k. c #76BEC2",
"l. c #59C9C8",
"z. c #4FCFD0",
"x. c #65C4C3",
"c. c #6BC2C3",
"v. c #65C7C8",
"b. c #71C2C3",
"n. c #7AC1C2",
"m. c #5CF6F4",
"M. c #55FCFC",
"N. c #5AFBFC",
"B. c #5AF9F6",
"V. c #74EDEC",
"C. c #7BEBEC",
"Z. c #7BE9E7",
"A. c #6BF2EE",
"S. c #74F1EE",
"D. c #74EDF1",
"F. c #63F5F5",
"G. c #6CF2F3",
"H. c #64F8F5",
"J. c #62F8F8",
"K. c #74F2F3",
"L. c #6FEFEF",
"P. c #8BB99A",
"I. c #97B49B",
"U. c #95AEAD",
"Y. c #9BADAC",
"T. c #9EAAA7",
"R. c #8CB3AE",
"E. c #85B7AC",
"W. c #94B2AE",
"Q. c #9BB1AE",
"!. c #95B4A2",
"~. c #8CAEB1",
"^. c #94AFB2",
"/. c #9BAEB1",
"(. c #85B5B4",
"). c #8CB4B4",
"_. c #84B9B5",
"`. c #8AB9B6",
"'. c #84B6BA",
"]. c #8BB5B9",
"[. c #83BABA",
"{. c #8ABABA",
"}. c #93B2B3",
"|. c #9AB1B3",
" X c #91B4B7",
".X c #8BAEA7",
"XX c #A4A6A6",
"oX c #A5A9A5",
"OX c #A5A6AB",
"+X c #AAA7AA",
"@X c #A3ABAC",
"#X c #AAA9AA",
"$X c #AAA8A6",
"%X c #A4ABB1",
"&X c #A1B1B4",
"*X c #88C198",
"=X c #95DEDD",
"-X c #9CDDDC",
";X c #9CDBD5",
":X c #8BDCDF",
">X c #A1DCDC",
",X c #A7D9D7",
"<X c #AAD5D4",
"1X c #93E1DD",
"2X c #9AE1DE",
"3X c #90E3DA",
"4X c #9CDDE2",
"5X c #94DEE1",
"6X c #8BDFE3",
"7X c #A2DEE2",
"8X c #8CE4E3",
"9X c #8AE6E9",
"0X c #84E8E8",
"qX c #93E2E3",
"wX c #9AE1E2",
"eX c #92E7E7",
"rX c #9CFFFF",
"tX c #95FFFF",
"yX c #A4FFFF",
"uX c #ACFFFF",
"iX c #B4FFFF",
"pX c #BDFFFF",
"aX c #A4E2E1",
"sX c #A3E0DB",
"dX c #C3FFFF",
"fX c #CCFFFF",
"gX c #D4FFFF",
"hX c #DBFFFF",
"jX c #E3FFFF",
"kX c #EAFFFF",
"lX c #F2FFFF",
/* pixels */
"t r y p l n c g j j c k 9 7 r i a l k z w 8 s 1   X l 8 p r y r u 9     c x w u i t r r r t r r r t 8 8 s u i i u d r i a d t r ",
"8XqXw.4.u < s 1 x x l s u 5.3.4.4.a w w u 2.2.a z x a =XeX8XqX] 5.u l x 1 s e 4.2.q.qXqX=X4.3.=X} q.7 ,Xu 4.] wX8.u =XqX>Xu 4.=X",
"8X1XfX5XO._ ` #.u d r #.X.8X>XgX8X#.r r $.0XZ.qXl 1 X.` V.iXfXfX9X$.i i $.' ] -XgXgXdXfXhXkXhXgXfX:Xw.] #.0XpXfXgX8.i r 3.2.jXkX",
"dXdXfXdXD.J.J.G. .r $.Z.0XpXdXdXiXZ.X.@.S.rXyX8X1 8 _ :.G.0XfX4XiXZ.@.O.yXC.pXfX>XfXeX6XhXhX<XhX>XfXdXpXuXV.Z.0XdXpX#.X.pXfXjXlX",
"dXdXwXdX9XC.yX*.,.+.dXgX4XdXZ.S.iXX.Z.yXm.H.uX4Xl a =.:.G.C.eXdXZ._ >.G.K.C.8XdXdXeXZ.uXK.Z.gXjXkXjXfX0XK.rXH.F.F.F.H.*.+.pXhXjX",
"8X8XpX8XpXiXV.G.:.G.dX-XgXpXS.G.iX0XZ.A.B.F.iX>Xx q ` :.tXK.uXZ._ rXm.m.rXL.Z.iXuXC.D.G.J.G.8XgXhXgXdXC.K.>.B.M.m.J.m.F.+.8X,XkX",
"pXpX0XiX9XiXD.G.G.yXC.0XuX0XiXiXC.iXiXZ.J.F.iX-XV s ` :.M.m.H.H.m.J.tXH.B.B.F.F.F.F.rXG.rXA.uXZ.S.V.V.+.>.B.M.m.yXC.K._ iXwXjXlX",
"0XZ.V.S.uXV.G.rXG.G.G.rXG.G.C.C.G.K.C.uXF.G.uX4Xx 9 +.:.N.M.M.M.M.B.H.F.M.M.M.M.M.N.F.G.A.A.V.S.G._ y o.F.N.B.m.V.uXL.yXZ.dXgXhX",
"F.F.J.B.F.F.m.m.m.m.m.m.N.N.J.F.N.N.m.H.G.yXD.8XX o X.>.:.N.M.M.M.M.N.B.M.M.M.M.M.M.N.N.N.F.Z.$.] p 8 p _ M.M.M.J.J.m.m.F.G.G.S.",
"_ +._ _ _ <._ _ _ _ +.+.;.` _ _ _ _ _ o.X.#.#.i X o p %.o.+._ _ _ _ _ <._ _ ;._ =._ _ _ _ O.i u < l h l $._ _ +._ +.+.+._ _ +._ ",
"9 s q d a < s < s 9 1 < a d < 8 9 8 9 < 9 1 s 2     z < s s < < 8 8 s s s < s q < s 8 s 1 o X     h v b 1 s s 8 q s q q s s q s ",
"X X X X o o X X o X   X o o X X     X X X X X o X X X X o o . . X X           X X       X X X X X X X X X X           X X X X X ",
"% % % % % % % % % % % % % & % % % % % % % % % % % % % % ; & % @ o o         o o % % @ @ % % % % % % @ % % % X         X @ % @ @ ",
"-X;X-X;X>X=X8X8XwX4X2X1X8X8XwX-X=XwXwX1XqXqXqXwX1XwX-X-X4X4X=X>X,X1 X     X < >X-XaX;XsX-X=X=X5X8X0X0X0X0XeX3 X     o 1 2X8X1X1X",
"^./.Y.Q.T.).#.#.'.).(.g.&.c.).U.).(.[.i.u.] i.i.3.i. XY.Y.Y.Y.U.).<XM X   z >Xi.).^.|.Y.U.Y.Y.). .z.,.` z.o.0Xi X X s 4Xu.f.i.1.",
"@X@X@XoXoXR.c.$.i.).6.p.#.{ `.W.A }.7.[.] c.k.3.3.y.U.@XY.Y.@X@XY.).,Xo X l 2.i.|.OX#X#X+X#X$XY.3.O.` >.` _ +.9Xo X u 3.4.5.i.k.",
"%X@XT.W.C ).i.w.x.{ 3.u.$.x.x.3.}.Y.7.i.#.o.O.$.u.(.).).1.6.Q.oX@X}.-X% X x 4.i.W.@XXX#X$X$XXX@X|.(.o._ l.v.l.9XX X p 3.t.i.x.X.",
"OXY.Q.^ ).].i.b.@.X.3.i.u.$.X.#.). Xt.u.x.@.z.@.3.t. X7.u.p.W.oXXXY.2X% o l 2.[.Q.oXXX#X$X$X#XXX$XU.c.O.' $.X.eXo X p [ 8.[.#.o.",
"#XXXoXT.}.1.$.X.v.r.).|.7.p...c.u.3.#.x.3.b.l.+.l.] ~.~.i.4.Y.+X+XY.2X% X l 4.i.Y.#XOX#XoXoX#X#X#X}.5.x.$.] c.=XX X p q.8.[.b.c.",
"#X#XoXT.}.[.] x.#.5.}.Y.}.{.i.w.3.f.#.#.p.u.+._ _ #.).}.3.i./.+X+XY.-X% X V 3.u./.+X@X@XT.Y.Y.@XY.).n. .x.v.x.qXX X i 3.'.(.4.3.",
"#X+X#X@XW.(.9.i.3.3.].~.).(.(.(.i.i.t.i.p.x.=.>.z.X.W `.#.c.^.OX+X/.-X% X l ..c.}.#X#X@XQ.W.}.].[.5.u.#.=.>.-.C.o X p 3.[.(.`.t.",
"OX@X@XY.R.7.).(.[.t.9.{.).7.).6.'.6. XQ q.&._ >._ X.[.t.q.5.|.@X/.).wX% o 1 $.#.}.#X@XY.A }.).8.i.3.} l._ -.:.D.o   p 3.6.).7.`.",
"#X@X^.}.7.).].].U.|.).).).7.).(.'.( /.U.4.c.#.l.z.O.4.).}.Y.OX/.3.c.8X% X l 3.u./.XXU.A @XY.}.).}.(.' X.' x.+.0Xo   p 3.'.7.].).",
"Y.U. X7.).).7.^.|.U.}.7.).`.(.6.'.].}.).3.x.#.x.O.%.u.).@XXX&X(.#.@.8X% X x 4.p.Y.@XW.}.Y.%X7.(.}.).s.#.f.k.l.9XX . u 4.(.).6.'.",
"i._.7.).6.).Y.Y.`.6.U.U.`.4.(.{.4.u.4.k.#.l.o.X.k.4.5._.Q.Y.(.3.x.#.8X% X x 4.5.Y.@X}.).) ).5.u.7.`.3.c.u...O.9XX   9 9.(.`.i.u.",
"4.1.).}.).^.#X@X(.6.Y.Y.7.`.( ).(.2.4.k.] { #.b.'.).9.(.Y.T.6.u.f.3.;Xo   h a {./.@XA }.}.).y.1.).R.'.1.i.4.x.qX.   x 1 }.7.1.4.",
"V l z k k c g g h z j h z z b k z x x l l 1 1 1 z k x x c c z l q ,Xl     c x x h b z k k h j j h j l l x 1 >Xu X   h x z z z z ",
"h b h v n c n c v c n c v v c c c v c c c n h c c n v c g g v h l l         c c v b v c c c c c n n c b c h l X       c c c c g ",
"      X                                                                                                                         ",
". . X X X o X o o o X o X X X X X X X X       X X X X o X o o o o o o o o $ o o o o X X X X X X         X X X X X X   X . X X X ",
"-X-X>X>X-XwX8X0X0X9X0X8X2X-X>X-X>X;XwXa X     X i 8X;X>X-X=X6X9X0X0XC.V.D.V.0X8X8X8X2X;X>X-X-Xa X     X s >X;X-X-X>X>X>X-X-X-X4X",
"i.i.t.i.u.j.v.O.v.X.X.l.s.i.p.i.y.i.u.>X1 X   1 { o.b.u.u.c.%.l.;.z._ _ _ +.#.x.X.v.r.i.p.i.k.-X9 .   l 3.x.c.c.i.i.i.i.i.p.i.p.",
"U.U.Q.}.6.t.i.4.].(.[ s.2.).}.Y./.^.(.0.>X@ X 1 { l.u.'.(.y.s.l.+.+.c.2.{.).}.).8.i.[.7.}.}.{.i.-Xo X 1 X._ x.5.).|.^.^.|.U.Y.T.",
"Q.T.Y.}._.i.'. X/.U.{.1.`.}.U.Y.Y./.).t.1X% X l } #.1.).).6.5.] x.$.i.).Y.Y.%X/.}.).). XY.Y.).8.wX% o 8 _ >.j.6.Q.T.Y.Y.@X@XoX$X",
"2.2.2.f.x.$.8.).C W.}.}.}.).1.[.).~.{.8.=X% X l 3.c.9.).).).{.'.}.).4.p.{.).(.9.'.(.(.Q 7.}.).(.5X% X 8 ` ` [./.}.A }.}.A U.@X@X",
"i.p.u.] #.] ).}.E.`./.Y.A }.{.2.(.7.].'.wX% X 1 3.r.[.).7.).).( Y.^.q.x.5.i.3.u.[.6.t._.). X7.y.wX% X 9 o.o.]./.}.).9.(.{.).|.T.",
"^.).i.u.p.`.U.W.y.1.^.%X@XT.Y.}.).7.7.(.1X% X 1 #.v.t.).).).7.). Xy.O._ v.] f.5.(.(.4.2.}.U.8.3.qX% X l ] c.'.e.7.).5.k.u.p.).}.",
"^.].3.] y.7.Y.U.0.y.^.OX@X@X@XY.}.(.).y.1X% X 1 ' #.[.Q ).7.(.[.2.c._ >.+.v.] y.7.).[.(.).}.t.u.qX% X x w.c.u.i.).{.s.#.$.4.E.e.",
"4.] v.#.] i./.Y.R.Q Y.@X|.^.( ).).`.i.f.8X% X l 3.c.1.).).(.4.f.#.l._ z.>._ ] (.7.}.U.R.[.1.'.[.wX% X M  .l.O.c.i.i.x.X.' i.}.Y.",
"i.r.@.O.r.8.}.}.`.(.Y.Y.7.{.t.[.4.u.] ] 8X% X z 4.u.].).).8.u.{ o.+.O.+.:.,.b.[.i.[.).[. .v.j.3.qX% X 1 #._ _ @.3.u.#.@.X.c.)./.",
"}.`.%.X.{.|.}.`.$.b.'.6.2.u.3.c.v.%...b.8X% X z 4.i.W.Y.C {.u.{ +.o.q.c._ +.s.f.#.x.#.l._ >.>._ 0X% X 1 $._ _ o.s.b.x.O.` _ s.4.",
"#X}.j... XY.7.t.] ' k.i.2.i.5.c.O.o.v...qX% X h 8._.Y.@X}.{.i.] x.#.u.u.#.x.{ } X.@.@.O.=.` -.,.0X% X V w.v.l.&.} ] ] v._ ` #.u.",
"+XY.'.9.).C 7.).0.p.3.4.).W.7.[...#.X.#.4Xo   j 1 7.@XY.7.(.8.[.t.4.3.3.i.5.3.] { } 3.p.3.c.+.o.=Xo X k q 1.4.u.3.3.w. .X.#.2.{.",
"c h l 1 9 1 l l M 9 u a z h z 1 a i t 1Xa X   c x x k k l s 1 1 l 1 u u q s a p 7 7 8 1 w a r 1X8 .   k l w w s d u u p p d s 2 ",
"g c c c k h c j j j k k b b h k j l 1 9 X       b b n c k k k k h b z l z z l l 4 O j h h z l 2 .       j j h k h h l V 1 l z j ",
"X X     X X X   X X X X X o X X X X o X X X X X X X o X o X X X X X X X         O N   X X X X X X X X X X . X             X X X ",
"% & % % % % % % % % % % & % % % @ % % % % % % % % % % % % % * % % % & % @ .   . + 6 . o $ % % % % % & % % % o o       X o o @ @ ",
"7X-XwX=X=X4X2X1X2X=XwXqX5XwX-X;X1X8XeX8X8XqXwXwX=X-X>X2X8X8X=X2X=XwX=X7X<XM   . + T O ,X;X2X8X9X5XwX5XqXwX-X7Xa X     X w ,X>X;X",
"/.|.(.).|.^.).`._.1.[.t.{.7.}.).3.s...c.x.#.4.).}.Y.Y.).#.x.(.}.).6.^.|.).<X9 . O m 6 + P.O #.%.w.[.3.u.R.)...qXa X   z 8.i.}.T.",
"+XXX^ U./.Y.W.C (.'.{.6.{.(.}.).] x.' v.#.' i.).Y.@XT.).{ #. XU.(.`.|.T.|.).,XO . O > + + 0 * $.i.[.u.5.W.W.u...4X$   z 4.i.R.Q.",
"@X@X@XU.(.6.|.Y.[.3.[.(.4.i.4.u.O.l.o.X.s.3.3.[.Y.Y.`.5.s.} (.(.$.c.(.A @X/.-X@ . . : = = T + p.u.] } u._.C ).{.=X% o x 5.r.i.2.",
"U./.@X/.[.4.}.^.2.i.1.`.p.3.} c.$.X.@.x.p._.2.(.^.|.2.f.s.3.(.9. .$.E.W.Y.U.4X% X . U = = T O 0.u.} u.2.R.W.Y.W.;X@ X l w.x.#.x.",
"[.).Y.Y.).t.i.4.[.`.).).`.1.f.3.(.`.] s.[.R.}.^. X( 6.i.u.f.[.8.4.y.P.. ^ ).=X% X . K - = : O Q ! + W ).Q.T.U.R.O .   l ..+.+.l.",
"3.1.W.. C E.i.2.`.Q 6.(.E.`.u.5.W.U.{.2.E.C }.}.'.'.'.[.5.5.'.(.y.E.O N O y.2X@ X . J F - : O E.+ 0 O |.Y.Y.^ O m O   M # &.X.@.",
"] 2.O N O P.W.|.C ).4.p.].'.3.i.).A U.}.}.].1.i.u.f.u.4.[.6.{.(.i.W O m + ! 3XO . f + I = : . !.+ 5 . /.e..X. O K = . . 6 = g.i.",
"i.y.E.O m O I.T.!.O y.8. X( '.1.(. X/.%X}.6.4.u.3.3.] f.y.@ E.2.3.g.P.O 6 = + 0 . f + I - U . . 5 + !.Y.R.O N + J K O . m + ~ R.",
"!.O W a.+ m . I.+ 6 . Y.Y.|.Y.).[.1.Y.Y.W.).7.(.`.2.] d.+ 0 + ! [ g.O O U = = 5   f O K L P O O > + P.^ P.O N O = > O O m O P.O ",
"O N # W + : : = = / . $X@X@XY.}.4.[.|.Y.W.Q R.R.).{.3.s.E + R + ! O N + > = = : . B + I L - ~ + T + a.E.O m O + + U + 5 O I.O m ",
"= 5 O 6.!.O L S - : . $XOX@X}.7.'.].%XT.}.E.R.R.).'.i.s.] # R + *XO m + U = K = U + + R P = = U R = p.W + U + > + U S L O I.+ > ",
"L - h.E.W.O L S J + I.Y.Y.}.R.].7.}./.&X).6.Q ).].8.4.3.j.| = U + m O P.+ U I = J = ~ + U = = I = ! g.! = K = , + = S S O . U - ",
"G S = ! 5.! = J I + Q  X8.0.`.Q 7.).( (.2.4.(.7.6.'.(.1.3.! = I = 5 O Q O : U = F K O . 5 = = T O Q 1.O P K O . , = F J O O L G ",
"G H P = 7 7 + I I + 4 1 u u 9 l 1 1 1 s d u s 1 w w Z s d 7 = I = T . M 4 O U = - I . . m = = : O 1 V O P = f . , = - I . O S G ",
"G D J + 4 4 = K I + B h z z h k k b h h z z z z z h b h z 4 + I = : . h j . > = = U . . , = = : . k k . U + B . T = = : . O S G ",
"G D L + f f + I I + f c c c c c c c n g v v c c c h g g c f + I = U . c n   , = = U . . Y = = m . v c . 5 + f . : = = , . O S G "
};
