/* XPM */
static char *b9a615c3375845f1cdc80d9860f03d3al18CPd2I3X7mC4S3[] = {
/* columns rows colors chars-per-pixel */
"64 64 240 2 ",
"   c #000303",
".  c #000A03",
"X  c #00060A",
"o  c #000B0B",
"O  c #001300",
"+  c #001C01",
"@  c #00130D",
"#  c #001C0A",
"$  c #000D10",
"%  c #001313",
"&  c #001419",
"*  c #001B13",
"=  c #002300",
"-  c #002B00",
";  c #00250D",
":  c #002719",
">  c #3C7D3C",
",  c #387E38",
"<  c #417D3D",
"1  c #41653F",
"2  c #3D5C4B",
"3  c #355E5C",
"4  c #3D5D5C",
"5  c #3A5C57",
"6  c #3D7C41",
"7  c #3A7D47",
"8  c #28695B",
"9  c #34615E",
"0  c #3B615D",
"q  c #3D6250",
"w  c #397A54",
"e  c #2F7F5C",
"r  c #385E62",
"t  c #1B6C6C",
"y  c #186C6B",
"u  c #1C6E71",
"i  c #167171",
"p  c #0A7271",
"a  c #266665",
"s  c #2C6464",
"d  c #2A696B",
"f  c #256968",
"g  c #346263",
"h  c #3A6262",
"j  c #336666",
"k  c #256C70",
"l  c #495948",
"z  c #53534D",
"x  c #4C5554",
"c  c #435A56",
"v  c #4B5955",
"b  c #4C575A",
"n  c #445B5B",
"m  c #4B5B5A",
"M  c #445658",
"N  c #535454",
"B  c #535955",
"V  c #55555A",
"C  c #565757",
"Z  c #554F4F",
"A  c #456148",
"S  c #437B42",
"D  c #47764A",
"F  c #43605A",
"G  c #447554",
"H  c #455C61",
"J  c #4B5B61",
"K  c #595860",
"L  c #406264",
"P  c #19971A",
"I  c #129814",
"U  c #05A604",
"Y  c #11A012",
"T  c #169525",
"R  c #2C8A2B",
"E  c #288B28",
"W  c #32872E",
"Q  c #269129",
"!  c #2A8836",
"~  c #338434",
"^  c #378537",
"/  c #20911F",
"(  c #42833F",
")  c #2B8445",
"_  c #388144",
"`  c #2D8452",
"'  c #338253",
"]  c #3A9578",
"[  c #278D72",
"{  c #469368",
"}  c #588579",
"|  c #458E75",
" . c #0F9E9F",
".. c #1C9A96",
"X. c #159E9D",
"o. c #1C9C9B",
"O. c #1C9697",
"+. c #1E9F8D",
"@. c #2B8E8F",
"#. c #3C8D8C",
"$. c #368D8A",
"%. c #2C968C",
"&. c #34928D",
"*. c #3C918C",
"=. c #369484",
"-. c #3B8E91",
";. c #348E91",
":. c #249695",
">. c #2D9594",
",. c #249A96",
"<. c #2B9995",
"1. c #25969A",
"2. c #2B9699",
"3. c #239B9B",
"4. c #2A9A9A",
"5. c #349393",
"6. c #3A9192",
"7. c #329499",
"8. c #329897",
"9. c #0CA19E",
"0. c #02A39E",
"q. c #13A29D",
"w. c #1AA19D",
"e. c #24A097",
"r. c #0C9EA3",
"t. c #139EA1",
"y. c #1B9EA1",
"u. c #249BA1",
"i. c #03A6A4",
"p. c #0CA3A3",
"a. c #02A9A5",
"s. c #09A9A4",
"d. c #02A6A9",
"f. c #01A9AA",
"g. c #0BA6A9",
"h. c #13A2A2",
"j. c #1BA1A2",
"k. c #4E8689",
"l. c #438C8B",
"z. c #4B8A8A",
"x. c #498985",
"c. c #548482",
"v. c #568585",
"b. c #428E92",
"n. c #409091",
"m. c #628082",
"M. c #6DBEBE",
"N. c #7CBAB6",
"B. c #74BDBC",
"V. c #7CBBBB",
"C. c #78B9B7",
"Z. c #79BBA7",
"A. c #64C3BE",
"S. c #6BC1BC",
"D. c #67C5B7",
"F. c #74C1BB",
"G. c #5ECAB3",
"H. c #6CBEC2",
"J. c #72BDC1",
"K. c #79BEC2",
"L. c #4DCDCC",
"P. c #47CDCC",
"I. c #5CC5C6",
"U. c #5CCAC6",
"Y. c #5DC6C9",
"T. c #53CCCC",
"R. c #5BCBCB",
"E. c #55C9C6",
"W. c #4BD2CD",
"Q. c #45D2CD",
"!. c #4CCED2",
"~. c #54CCD1",
"^. c #4BD2D3",
"/. c #43D2D1",
"(. c #54D1D1",
"). c #64C4C4",
"_. c #6BC3C3",
"`. c #62CAC6",
"'. c #61C6C9",
"]. c #65C8CA",
"[. c #72C2C3",
"{. c #7AC0C1",
"}. c #4FFBFA",
"|. c #4CF5F8",
" X c #54FBF6",
".X c #5CFAF6",
"XX c #54FCFC",
"oX c #59FCFD",
"OX c #57F6F7",
"+X c #74EDED",
"@X c #7DEAEB",
"#X c #7DE7E6",
"$X c #73F0EE",
"%X c #74EEF3",
"&X c #64F6F5",
"*X c #6BF3F4",
"=X c #63F9F5",
"-X c #66F8F9",
";X c #71F1F2",
":X c #6EF0ED",
">X c #8DBB95",
",X c #9BACAB",
"<X c #96ADAA",
"1X c #87B7AA",
"2X c #92B1AD",
"3X c #97B3AA",
"4X c #97AEB2",
"5X c #85B5B4",
"6X c #8BB4B3",
"7X c #83B9B6",
"8X c #82BABB",
"9X c #88B6B8",
"0X c #93B2B4",
"qX c #9BB2B4",
"wX c #8EAFB1",
"eX c #A6AAAA",
"rX c #A1AFB2",
"tX c #88B9C0",
"yX c #9BDEDD",
"uX c #96DEDA",
"iX c #A4DAD9",
"pX c #ACD6D0",
"aX c #8DE4DE",
"sX c #94E2DE",
"dX c #9BE1D8",
"fX c #97E6C6",
"gX c #99DEE2",
"hX c #8DDEE1",
"jX c #84E6E5",
"kX c #8BE5E4",
"lX c #82E9E6",
"zX c #89E8E6",
"xX c #85E6E9",
"cX c #8BE5E9",
"vX c #83EAEC",
"bX c #8CEAEA",
"nX c #91E2E3",
"mX c #95E3E6",
"MX c #82EDF3",
"NX c #A7D9E0",
/* pixels */
"y t t t t t y y u t y f 9 F           n a f s 4 .   r s f y t u t t i t s 0 0 9 t y u t u y y i i t s j 3 g k t s s k t a s f t ",
">.>.>.>.>.>.2.>.>.>.7.5.#.s .       . g 6.5.#.s . . s #.@.8.>.2.>.4.<.>.$.f f #.5.4.vXxX#X>.>.@X2.7.y uXk #.5.vX*.f hXmXnXt %.lX",
"=X=X=X=X=X=X-X&X&X&X=X&Xh.1.d H   . a 2.*X-X-X>.o o >.h.=X=X=X-X&X&X&X-X*XX.o.*X=X=X&X&X&X=X=X.X&X*Xy.j.X.-X&X&X&X..i p ..X.-X&X",
"XXXXXXXXXXXXXXXXoXXXXX}.XXg.>.d 9 j 5.*XOXXXXX..o o o.XXXXXXXXXXXXXXXXXXXXoXoXXXXXXXoXoXXXXXXXXXoXXXoXoXXXXXXXXXXX.X3.,.=XXX XXX",
"oXXXXXXXXXXXXXXXXXoXXX}.XXOX-X3.2.p p X..XXXXX3.o o o.XXXXXXXXXXXXXXXXXXXXXXXXoXXXoXXXXXXXXXXXoXoXoXoXXXXXXXXX XXXoX=Xp.f.}.oXoX",
"oXoXoXXXXXXX}.XXoXoXXX}.XXXX X.X=X-Xy.h.i. XoX3.o % o.XXXXXXXXXXXXXXoX|.XXXXXXXXoXOXXX}.XXXXoXoXoXoX XoXXXa. X XXXXXoXoXf.}.oXoX",
"XXoXoXoXXXXXoXoXoXXXXXXX}.XXoXXXOXoXOX.XoXXXXXo.$ o ..XXXXXXXXXXa.XXXXoXoX XXXXXXXoXoXXXXXXXoXXXXX X=X9.i.XXXXXXXXXX Xi.XXoXoXXX",
"XXXXoXoXXXXXoXoXXXXX}.}.XXXXXXXXXXXXXXXXXXoX.X3.$ o 4..XoXXXXX.X&Xo.j.*X=X.X XXXXXXXoXoXXX.X=X-X*Xo.p ,.=XXXXXXXXXXXXXoXOXoXXXXX",
"XXXX X XXXXXoXXXXXXXXXXXXXXXXXXXXXXXoXOXXX.X&X7.o o >.h..XoXoXh.5.f k &.4.&XOXXXXXXXXXXXXX=X+X5.#.s r d o.oXXXXXXXXXXXXXXX}.XXXX",
"o.......o.o.o.o.o.o.o.o.O.u.......o...3...,.>.f X X d @.4...3.>.s o o g y 2.4.o.o.o.o.o.o.:.t s h n b 4 &.3.y.o.y.o.3...o.o.y.X.",
"r 9 9 9 9 g h r g g g h h 3 h h h h 9 h 9 9 h H . . n n 4 3 9 3 X X   . . 4 4 9 5 0 9 j g o . .   x V x 4 h g g g h 9 9 3 h g g ",
"X . o . . o X X X o . . o . . . X X . . . . . o o o . . . . . . X   .                 . o X o . . . . . o               . . . . ",
"& & % & % & & & & % % @ % % & & & & & & & % & % & & % % % % % % o .         . o % % % % % % & & % % % % % o .           o % % % ",
"@XvXvXxXlXzXhXnXjXlXjXkXsXnXxXvXxXxXcXcXcXcXkXkXkXcXxXvX@XvX@XjXsXj . .   X g nXxXvX#XvXlXlXvXxXnXyXyXyXuXiX4 o       n iXkXkXjX",
"p.9.p.9.q...[.H.3.w.3.>.{.#.o.h...,.:.>.5.).8.<._.>.o.h.r.h.p.h.o.#Xa . X r zXj.h.p.p.9.9.h.h.3.J.v.wX2X} 7XiXs .   n pXz.*.2.T.",
"a.a.d.s.i.w.-._.,.o.T.7.B.J.1.y.Q.w.L.4.H.#.&.).).2.h.p.h.p.a.f.i.h.aX@ . g o.f.f.f.f.f.f.f.a.h.).8X0X3X6XN._.sX.   n 5XB.).8.1.",
"a.i.p.t.^...<.).l.[._.5.M.l.l.).X.p.W.>.V.9X7XB.5.3.y.y.R.T.p.f.f.h.xX@ . h o.f.a.a.a.i.f.a.f.s. .4.8X6Xz.&.>.cX.   b 6X6.>.b.B.",
"a.s.r.^.y...<.&.N.V.).2.5.H.V.[...X.,.6.l.8Xc.8X_.4.X.L.5.>.p.f.f.p.vX%   0 o.f.a.a.f.a.f.f.i.f.f.w.#.V.[.I.T.xX.   N 0X).2.B.7X",
"i.f.d.p.X.R.M.V.l.6.o.X.T.>.S.*.>.).B.l.'.;.z.5Xk._.j.j.>.I.h.f.f.p.@X% . 3 o.f.f.i.f.i.f.f.d.i.i.q.].n.S.U.X.@X.   C wX).4.&.#.",
"a.i.f.g.X.4._.l.[.`.w.p.o.,.>.A.).6.B.B.4.7.7X6X6XB.o.X.).5.h.d.i.p.vX% . h o.f.d.f.f.d.g.p.g.p.q...@.[.l.&.o.vX.   C 0X5.4.`.A.",
"i.a.i.s.y.3.Y.7._.)...w.X.3.4.4.3.1.4.>.7.b.2X,X} B.T.O.B.#.j.f.f.p.#X& . h o.f.f.f.f.a.h.o.o.o.4.).6.B.6X9X[.gXo   N 0X;.3.:.2.",
"a.a.i.p.y.!...,.1.4.E...o.L.o.T.3.!.X.!.Y.K.0X,X6XC.:.4.M._.X.i.9.3.bX% o g o.f.f.i.a.p.Q.o.o.T.2.'.H.z.9XtXJ.gXo   N 0X_.3.T.,.",
"a.s.h.o.L.3.3...h. .y.3.o.!...3...W.p.h.I.-.V.v.c.N.I.o.y.y.p.q.).l.nX% . 3 y.d.f.f.q.Q.9.q.o.o.h...K.N._.2.U.aX.   V 0X5.T...3.",
"p.h.o.T.3.o.P.w. .h.X.L.o.3.3.E.,.,.X.o.).l.B.z.N.B.4.y.p.g.9.3.B.N.gX% . 3 u.f.f.s.w.o.h.9.T.o.p.o.l.V.>.3.3.aX.   V 0X5.3.E.4.",
"2.2.T.o.T.o.p.p.1.R.h.h.1.Y.4.:.).&.).&.V.c.5XN.6.'.'.4.p.p...'.-.B.nX&   0 ..i.f.d.y.o.!.o.R.2.L.3._.l.6.).E.zX.   C 0X5.3.>.5.",
"N.V.6.5.6.>...4.l.J.:.:._.#._.6.l.8XN.k.6X0X2Xc.-.-.K.#.4.:.[.l.l.B.gX$ . c 6.3.o.3.'.;.5.;.l.B.6.*.l.N.k.V.5.nXo   C 2Xl.).K.8X",
"c n n 4 4 0 j g n n 4 h 4 n 5 4 n n M n n M c c 4 4 n n 4 h 5 n 9 pX4 .   B n 3 h 0 5 n n 4 c n 5 4 5 J M 4 iXj .   N x c 0 n M ",
"N Z C N z N x b z C N C z N x x N N V V b b b B C C C N N N C x n c .       N N N N N C N z C B N B B B C x H X       N z N N N ",
"                                                                  .                                                             ",
"$ $ o o o o o o . o o o o o o o o o o .           . o o o o o o o o o . . o $ $ o o o @ $ $ $ o         . . $ o o o o o o $ o o ",
";X;X:X*X+X+XlXzXzXkXcXvX+X+X+X;X;X+XlXf X     . 9 sX#X$X:X$XxXkXkXmXgXmXkXxX+X+XxXlX+X:X$X+XxXa .       g nX@X;X:X;X;X;X%X+X+X$X",
"i.f.f.f.s.h.X.W.o.L.~.y.p.i.f.f.f.s.o.zX3 . . c iX).X.s.i.p.T.2.U.>.'.'.'.3.t.h.!.o.p.a.i.i.w.kXg     b 5X$.o.p.a.f.f.d.f.a.i.f.",
"f.f.d.d./.w.o.W.9.h.~.u.!.h.s.f.d.p.y.I.uXo . b 4 l.4.X.X.3.>.&.B.[.>.R.5._.Y.1.T.o.o.Q.i.s.X.2.sXo . C eX6X#.T.p.a.f.a.0.s.i.f.",
"p.h.h.o.4.2.,.o.9.h.O.R...X.h.p.p.p.y.4.kX% . b 0 B.U.o...R.'.).*.A.>.>.n.B._.2.3.....X.p.p.y.E.kX% . N eX,Xl.E.9.a.a.a.9.9.f.d.",
"Y.I.'.&.l.F.E.o.Q.X.X.X.o...R.:.o.h.X.R.kX% . n s #.E.3.3.4.:.3.w.o.'.b.x.B.`.....3.o.^.^.o.o.4.zX% X V eX0X2.h.h.^.t.h.^.h.f.d.",
">.5.6.[.B._.3.y.3...9.s./.o.:.R.o.L.o.4.cX& . n s 6.4.o.T.3.3.^.p.o.[.k.7XF.:...o.T.u.o.X.o.E.>.kX% o x ,X7X3.p.o.u.L.3.:.3.p.g.",
"q...>.5.>...h.t.2.R.q.0.a.g.p.t.y.L.T.4.kX% X b r #.4.o.3...!.j.X.2.5X0Xz.$.R.o.o.3.'.Y.X.h.U.).cX& . M 9X#.3.L.!.3.'.5.5.>.o.X.",
"q...)._.4.!.p.p.R.4.9.a.i.i.i.h.X.3.4.>.kX& X J h B.2.!...T.3.:.U.6.0X0XV.].4.o.P.3.:.4.y.X.<.5.cX& . m 7X$.5.4.3.1.-.B.S.A.u.P.",
"'._.l.C._.,.q.p.j.!.p.s.9.w.Q.o.o.3.>.&.kX% o n s #.R.o.o.4.I.#.V.c.6Xc.B.5.4.o.L.o.h.j.1.U.,.:.kX% . v 6Xv.7Xl.7.7.z.N.[.>.X.g.",
">.6.N.N.6.R.X.q.o.3.h.h.T.:.4.:.U.>._._.kX% o n a 5...w.o.E.6.B.9X6X7XC.V.-.R.3.<.,.o.:.[.l.6._.cX% . b wX6X6X7X_.6.V.7XV.6.y.p.",
"h.4.V.V...9.h.3._.$.,.T.'.7.).-.l.V.M.6.aX@ . m s 5.q.p.Q.3.5.K.9X8X_.6.V.l.R.1.F.z.V.z.wXqX4X6XgX& . v qX6X6X7X#.6.l.N.0X6X&.R.",
"t.:.z.N.:.o.E.6.N.8X#.6._.-.J.z.6X6Xk.K.uX@ . v g *...X.,.%.n.C.c.tX$.6.V.B.7.5.7X2X6X6XqX,XeXqXNX& X v 2XL c.7X8XN.8Xc.,X,X7Xl.",
">.*.k.5Xz.V.V.k.9Xv.2X6Xz.l.V.c.<XqX6X7XiXo . C b 9 6.5.B.z.V.k.v.5X0X5Xz.#.;.b.0X,X2X} 0Xm.0X6XiXo . B ,XqX2X} 2X,X,X,XeX,X0Xc.",
"a s 3 n 4 4 5 4 4 n B v 9 s 3 F b b n pXL o   C N b 9 s h 4 4 h h 4 m c j a d g v x c 0 4 r 4 pX4 .   x B b m n B N C N N V M H ",
"H n m b v m v b b b x x v b b b x B b b X       Z C v m v m x v b b N z x v c 2 2 . v v b b b b   .     C N b v B B x K N B m b ",
"X X X o o . . o X . . . . . . X . . . . X X . . . . . . . . . . X . . .       . O D . . X X . . . . . . . X   .           . . o ",
"& % & & % % % & & & % % % % & & & % % % % % % & & & & & @ @ & & & % @ @ o X   . O 7 O o @ % & % % % & & & $ % .         . o @ @ ",
"xXzXjXbXjXzXjXkXcXkXkXjXzXjXvXvXcXnXsXsXsXsXkXjXvX@XMXxXaXsXxXvXxXjXlXzXuXg . . O 6 O dXdXdXiXyXkXkXcXcXxXkXyX3 .     . 0 yXkXlX",
" .X.3.3.w.w...4.,.R.3.3.4.T.h.o.I.*.S.l.k.V.'.3.X.h.h.3.M.*.o.t.o.L.w.w.4.cXs . O S 6 + { O 2X5X).,.).7.o.o.).yXg .   n 7X6.o.p.",
"f.g./.j.X.h.h.Q.,.:.o.(.3...h.o._.l.F.x.V.[.>.o.p.a.p.3.B.S.o.p.O.,.h.p.o.'.mX@ . O > = = w . 6X&.4.5.'.X.q.,.).uXo . m N.5.o.h.",
"d.i.a.q.4.E.9.h.4.'.3...'.5.I.6.N.c.5XN.6.I.).,.p.p.3.).6._.3.,.[.$.4.L.7._.nX% . . > = = 7 . c.b.H._.5.,.Q.9.w.jX& . n 8X#.>.I.",
"h.p.s.X.4.I.X.h.R.7.T.3.5._.H.-.B.V.7Xl.2.3.U.,.9.h.U.5.6.).4.I.F.B.@.&.b.V.mX% . . , = = _ O 6Xx.B.#.).,.w.h.o.aXO . m 5Xz.B.l.",
">.,.w.w...1.2.E.:.3...3.:.`.6.'.o...).6.1.y.h.h.y.!.L.<.&.&.2.R.R.&.] + 2XwXdX% X . W - = 6 O 6X1XO F.7.y.t.4.&.O O . x rX2X5Xc.",
"S.A.%.: E.,.2.'.,.E.R.,.,.:.7.U.h.p...T.u.^.t.X.u.1.,.:.).).4.3.:.%.+ w O 3XuX@ . . R / - _ O } O w # 2.y.o.A.+ 7 O   N   3X5XV.",
"_.S.# [ = =...o.`.&.A.7.4.<.).7...W.h.9.o.3.U.>.7.@.5._.5.'.,.,.5.S.+ e + { fXO   A + R = ^ O } + ) ; ,.R.&.O + ~ + .   D + =.>.",
"$.=.| + ' = +.+.=.# *.).3.L.4.U.<...p.p.o.R.).&.).).S.#.#.* =.D.F.x.| + ` = + w . l + R - ~ O . > = %.,.=.+ w + R ~ . . 6 = G.,.",
"] + 1X} + ) = ] = ` # >.j.g.p.o.>.U.p.p.j.:.U.,.<.U._.x.O w O 1X7X} O + _ = = 6 . l + R Q W . . < = %.E.] + G O = ~ O O 7 = ] = ",
"+ e O 1X+ ) ) - = ) # 4.r.d.g.q.I.4.h.p.X.(.......4._.x.1XO D O 1XO G + ^ = = > O 1 + ~ E = >XO < = %.%.= _ O + + ^ = > + { + ` ",
"= ) + F.] = T I - ) ; o.g.d.p.P.4.O.i.s.q.o.o.o.o.1.7.l.1XO 7 + { + w = ! = ~ = 6 + + S ^ = = > S O *.D.= ^ + > + , / Q + } + ! ",
"Q - ] =.*.= T I E = [ 3.h.y.3.4.R.3.w.q.o.T.T.3.3.I.].J.z.Z.+ ^ = ' + { = ^ ~ = W = >XO < = = ^ O >Xk.Z.= ~ + S O = I P O . ~ - ",
"Y T = ] *.] = Q ! = ] %.7.>.&.&.&.%.>.>.>.>.7.7.5.6.-.b.#.| + ~ = _ O } O > ^ = E R O . > = = ^ . ,XqX. ! R O O > = P E O O / Y ",
"U Y ! + 8 8 = ~ ~ = 8 s s s a a a a a a a d d a a 8 s a d 8 + ~ = _ . F A O ^ = - W . . > = = > . x C . W = A . > = - W . O P U ",
"U Y Q + q 2 + ~ ^ + A b n n n n n n H n n n c n v c n m M 2 + W = > . x B . > = = , . . > = = S . N N . ^ = l . S = = ~ . O P U ",
"U Y E + l l + ~ ~ + l C V x B B V N K N N N N N z z C N V l + W = 6 . N V   > = = > . . > = = 6 . N N . > + A . S = = ( . O P U "
};
